<?xml version="1.0" encoding="utf-8"?>
<!-- Generator: Adobe Illustrator 25.4.1, SVG Export Plug-In . SVG Version: 6.00 Build 0)  -->
<svg version="1.1" id="Layer_1" xmlns="http://www.w3.org/2000/svg" xmlns:xlink="http://www.w3.org/1999/xlink" x="0px" y="0px"
	 viewBox="0 0 627.3 402" style="enable-background:new 0 0 627.3 402;" xml:space="preserve">
<style type="text/css">
	.st0{fill:#FFFFFF;}
	.st1{fill-rule:evenodd;clip-rule:evenodd;fill:#FFFFFF;}
</style>
<g>
	<g>
		<g>
			<path class="st0" d="M12.5,308.7c0,0,8.6-2.4,11.6-23.7c3-21.4,3.6-51.9,3.6-73.6c0-21.7,6.3-59.7,15.3-77.6
				c8.8-17.4,9.3-5.2,9.9,0.4c0.6,5.6,18.9,72.9,23.4,84c2,4.9,2.2-1.3,2.3-2.4c0.1-1,12.4-55.8,35.5-86.7c7.1-9.6,7.6,0.4,7.1,4.9
				c0,0-2.4,124.6,2.9,148.8c0,0-6.5-1.8-26.1-0.6c0,0,2.7-9.2,3.3-16.3c0.6-7.1,0-81,0-81s0-4.5-2.7,2.4c-2.7,6.8-22.5,73-24,84.2
				c-1.5,11.3-2.7-3-3.6-5c-0.9-2.1-24.3-77.4-24.6-80.4c-0.3-3-1.8-10.7-4.4,0.3c-2.7,11-3.6,40-4.2,58.1
				c-0.6,18.1-0.4,66.9-27,73.9c-5.9,1.6-9.5-2.4-10.5-4.9c-0.7-1.7,0.9-6.4,4.9-6.2C9.1,307.5,9.8,309.6,12.5,308.7z"/>
			<path class="st0" d="M276.1,226.4c0-17,4.9-46.8,12-60.7c6.9-13.6,7.3-4.1,7.8,0.3c0.5,4.4,14.8,57.1,18.3,65.7
				c1.6,3.9,1.7-1,1.8-1.9c0.1-0.8,9.7-43.6,27.8-67.9c5.6-7.5,5.9,0.3,5.6,3.8c0,0-1.9,97.5,2.3,116.5c0,0-5.1-1.4-20.4-0.5
				c0,0,2.1-7.2,2.6-12.8c0.5-5.6,0-63.4,0-63.4s0-3.5-2.1,1.9c-2.1,5.3-17.7,57.1-18.8,66c-1.2,8.8-2.1-2.3-2.8-3.9
				c-0.7-1.6-19-60.6-19.3-62.9c-0.2-2.3-1.4-8.4-3.5,0.2c-2.1,8.6-2.8,31.4-3.3,45.5c0,0-0.1,26-11,31.6c-10.9,5.6-14.7-0.6-14-3.7
				c0.8-3.8,7.6-4.1,10.5-0.5c0,0,6.9-4.4,6.5-15.8C275.5,252.6,276.1,226.4,276.1,226.4z"/>
			<path class="st0" d="M124.2,216.1l13.6-17.4c0,0,0.7-23.8,0-26c-0.7-2.2-3.3-10.7-3.8-11.6c-0.4-0.9-0.7-2.2,2-1.8
				c2.7,0.4,35.6-0.4,38.3-0.9c2.7-0.4,4.7-3.3,5.6-1.1c0.9,2.2,2.2,5.3,2.8,7.6c0.6,2.3,1.3,7.7,1.2,8.6c-0.1,0.9-1.6,3-3.3,1.3
				c-1.6-1.6-6-7.7-12.3-7.9c-6.3-0.1-14.1-1.2-14.1,9.2c0,10.4,0,13.9,0,13.9s6.1-0.6,10.5,1.9c4.2,2.4,13.9,10.8,28.8,1.8
				c0,0-5.4,15.4-24.5,16.3c-7.6,0.4-15.5-4.7-15.5-4.7v52.7c0,0-1.3,6.4,3.5,10.5c4.7,4.2,7.3,6.2,17.1,6.2
				c9.8,0,18.7-9.2,18.5-14.5c0,0,3,5.9-1.2,13.9c-4.2,8-16.2,9-18.5,9c-2.4,0-34.7-0.9-38.4-0.4c0,0,3.3-9,3.3-15.7
				c0-6.7,0-61.6,0-61.6L124.2,216.1z"/>
			<path class="st0" d="M298.1,307.2c0,0-4.8,10.9-15.1,10.1c-11.6-0.9-21.4-22.2-27-32.3c-5.6-10.1-18.4-43-22-46.3
				c0,0,26.1-10.7,26.4-35c0.3-24.3-19.9-42.4-33.2-45.7c-13.3-3.3-27.9,0.3-30.6,2.1c0,0,0.9,5.3,5,6.8V263c0,0-0.3,13.9-3.3,19.3
				c0,0,15.4-0.9,24-0.3c0,0-5-11.6-5.3-24.6c-0.3-13.1,0-20.9,0-20.9s1.3-4.2,3.3,1.6c1.9,5.8,22,62,43.6,80.4
				C285.7,336.8,301.1,321.1,298.1,307.2z M217.5,230.9v-66.5c0,0,11,0,20.5,12.2c12.1,15.5,9.5,37.4,0.6,47.8
				C230.4,233.9,217.5,230.9,217.5,230.9z"/>
			<path class="st0" d="M436.6,238.8c-3.6,2.2-9.3,3.6-9.3,3.6c0.2-21.8-19.6-69.9-21.4-76.5c-1.8-6.7-0.4-12-6.5-4.7
				c-22.4,27-36.8,89.2-36.8,89.2l-10.1,11.4l9.3-6.1c0,0-1.2,11.6-1.3,18.2c-0.1,6.7-4.3,9.2-4.3,9.2c4.2-0.9,15.4-0.3,15.4-0.3
				c-2.7-3.3-2.2-19.1-1.3-22.7c0.9-3.6,1.9-9.8,1.9-9.8c8.2-6.3,16.8,4.1,26.4,4.9c9,0.8,15.2-1.1,15.2-1.1c1.1,3.8,1,14.2,1,17.8
				c0,3.6-3.6,10-3.6,10c11.6,2.9,21.8,0,21.8,0c-2.2-7.1-5.3-34.3-5.3-34.3C434.4,244.4,436.6,238.8,436.6,238.8z M405.1,241.6
				c-0.7-1-5.7-5-14.6-5c-8.9,0-17.2,3.7-17.2,3.7s-3,2.4-1.3-4.7c5.4-22.8,14.1-41.6,16.6-46.1c3.7-6.5,3.7-2.8,5.9,2.5
				c2.2,5.3,9.2,30.1,9.8,32.9c0.6,2.8,2.8,11,3.7,14.8C408.9,243.5,405.9,242.6,405.1,241.6z"/>
			<path class="st0" d="M437.9,159.4c0,0,14.1,0.3,23.5-0.1c0,0-0.9,3.4-1.8,5.8c-0.9,2.3-1.9,9.6-1.9,15.4c0,5.8,0,78.3,0,78.3
				s-0.2,19.1,4.4,24c0,0-15.1-0.3-24.6,0.1c0,0,4.9-12.5,4.4-27.9C441.6,239.8,444.7,166.4,437.9,159.4z"/>
		</g>
		<g>
			<path class="st0" d="M11.9,278.6c0-0.5,0.1-1.1,0.4-1.6c0.3-0.5,0.7-0.9,1.2-1.2c0.5-0.3,1.1-0.4,1.6-0.4c0.6,0,1.1,0.1,1.6,0.4
				c0.5,0.3,0.9,0.7,1.2,1.2c0.3,0.5,0.4,1.1,0.4,1.6c0,0.6-0.1,1.1-0.4,1.6c-0.3,0.5-0.7,0.9-1.2,1.2c-0.5,0.3-1.1,0.4-1.6,0.4
				c-0.6,0-1.1-0.1-1.6-0.4c-0.5-0.3-0.9-0.7-1.2-1.2C12.1,279.7,11.9,279.2,11.9,278.6z M12.2,278.6c0,0.5,0.1,1,0.4,1.5
				c0.3,0.5,0.6,0.8,1.1,1.1c0.5,0.3,1,0.4,1.5,0.4c0.5,0,1-0.1,1.5-0.4c0.5-0.3,0.8-0.6,1.1-1.1c0.3-0.5,0.4-1,0.4-1.5
				c0-0.5-0.1-1-0.4-1.5c-0.3-0.5-0.6-0.8-1.1-1.1c-0.5-0.3-1-0.4-1.5-0.4c-0.5,0-1,0.1-1.5,0.4c-0.5,0.3-0.8,0.6-1.1,1.1
				C12.4,277.6,12.2,278.1,12.2,278.6z M13.1,277l1.3-0.1v0.2c-0.4,0.1-0.6,0.3-0.8,0.5c-0.2,0.2-0.3,0.5-0.3,0.9
				c0,0.3,0.1,0.5,0.2,0.7c0.1,0.2,0.2,0.4,0.4,0.5c0.1,0.1,0.3,0.2,0.5,0.2c0.2,0.1,0.4,0.1,0.7,0.1c0.6,0,1.1-0.1,1.4-0.4
				c0.3-0.3,0.5-0.6,0.5-1.1c0-0.6-0.2-1.1-0.7-1.4l0.1-0.2c0.6,0.4,0.9,1,0.9,1.8c0,0.6-0.2,1.1-0.6,1.5c-0.4,0.4-0.9,0.6-1.4,0.6
				c-0.6,0-1.1-0.2-1.5-0.6c-0.4-0.4-0.6-1-0.6-1.6c0-0.1,0-0.3,0-0.4c0-0.1,0.1-0.3,0.1-0.5c0-0.1,0-0.1,0-0.2c0,0,0-0.1,0-0.1
				c0,0-0.1-0.1-0.2-0.1V277z"/>
			<path class="st0" d="M12.1,272c-0.1-0.5-0.1-1.1-0.1-1.7c0-1.2,0.3-2,0.8-2.6c0.5-0.6,1.3-0.9,2.3-0.9c1,0,1.9,0.3,2.5,0.9
				c0.6,0.6,0.9,1.6,0.9,2.8c0,0.6,0,1.1-0.1,1.5H12.1z M17.7,271.2c0-0.2,0-0.5,0-0.8c0-1.7-1-2.7-2.7-2.7c-1.5,0-2.4,0.8-2.4,2.6
				c0,0.4,0,0.7,0.1,1H17.7z"/>
			<path class="st0" d="M12.9,265.4c0,0.3-0.2,0.5-0.5,0.5c-0.3,0-0.5-0.2-0.5-0.5c0-0.3,0.2-0.5,0.5-0.5
				C12.7,264.8,12.9,265,12.9,265.4L12.9,265.4z M18.3,265.8h-4.5v-0.8h4.5V265.8z"/>
			<path class="st0" d="M17.5,263.7c0.2-0.3,0.3-0.7,0.3-1.1c0-0.6-0.3-0.9-0.7-0.9c-0.4,0-0.6,0.2-0.8,0.8
				c-0.3,0.8-0.7,1.2-1.3,1.2c-0.7,0-1.3-0.6-1.3-1.6c0-0.5,0.1-0.9,0.3-1.1l0.6,0.2c-0.1,0.2-0.3,0.5-0.3,0.9
				c0,0.5,0.3,0.7,0.6,0.7c0.4,0,0.6-0.3,0.8-0.9c0.3-0.8,0.7-1.2,1.4-1.2c0.8,0,1.4,0.6,1.4,1.7c0,0.5-0.1,1-0.3,1.3L17.5,263.7z"
				/>
			<path class="st0" d="M15,259.9c-0.5,0-0.9,0-1.2,0v-0.7l0.7,0v0c-0.4-0.2-0.8-0.7-0.8-1.5c0-0.6,0.4-1.6,1.9-1.6h2.7v0.8h-2.6
				c-0.7,0-1.4,0.3-1.4,1c0,0.5,0.4,1,0.8,1.1c0.1,0,0.3,0.1,0.4,0.1h2.7v0.8H15z"/>
			<path class="st0" d="M16.2,254.2c1.1,0,1.6-0.7,1.6-1.5c0-0.6-0.1-1-0.2-1.3l0.6-0.1c0.1,0.3,0.3,0.8,0.3,1.5
				c0,1.4-0.9,2.2-2.3,2.2c-1.4,0-2.5-0.8-2.5-2.1c0-1.5,1.3-1.9,2.1-1.9c0.2,0,0.3,0,0.4,0L16.2,254.2z M15.6,251.8
				c-0.5,0-1.3,0.2-1.3,1.1c0,0.8,0.8,1.2,1.3,1.3V251.8z"/>
			<path class="st0" d="M13.8,249.7l2.7-1c0.3-0.1,0.7-0.2,0.9-0.3v0c-0.3-0.1-0.6-0.2-0.9-0.3l-2.7-0.9v-0.9l3.2,1.2
				c1.6,0.6,2.4,1,2.8,1.6c0.3,0.4,0.5,0.8,0.5,1l-0.7,0.2c-0.1-0.2-0.2-0.5-0.4-0.7c-0.2-0.2-0.5-0.5-0.9-0.7
				c-0.1,0-0.1-0.1-0.2-0.1c0,0-0.1,0-0.2,0.1l-4.2,1.7V249.7z"/>
		</g>
		<g>
			<g>
				<path class="st0" d="M565.3,308.6c-3.8-2.9-9.9-1.9-12.6,1.1c-3.3,3.6-5.8,16-5.8,16c5.2,1.1,5.8,3.1,11.8,2.5
					c3.8-0.4,7.3-3.5,9.8-7.8C570.9,316.1,569.1,311.5,565.3,308.6z"/>
			</g>
			<g>
				<g>
					<path class="st0" d="M608.8,310c-23.7-1.9-28.3-8.2-31.6-12.2c-3.3-4-4.7-16.9-5.6-30.5c-0.5-7.5-0.5-19.9-6.5-21.6
						c-4.3-1.3-9.8,0.6-13.7,5.8c-6.8,9.2-17.9,29.3-24.7,35c-5.6,4.7-28.1-2.7-30.8-3.8c-2.7-1.1-17.6-9.3-23.4-1.6
						c-5.8,7.8,2.7,14.7,2.7,14.7c16.9,16.2,22.9,23.8,23.4,33.4c0.4,9.6-6.1,17-12.7,24.9c-7.8,9.3-10.1,15-5.1,21.5
						c4.3,5.6,12.5,4.1,23.1-2.8c10.7-6.9,20.2-9.6,29.6-7.8c9.3,1.8,16.7,12.2,20.9,19.8c4.2,7.6,8,20,18.5,16.7
						c10.5-3.3,5.6-22.5,5.1-25.1c-0.4-2.7-3.2-25.5,2.9-31.7c7.8-8,16.7-9,31.8-12.5c15.1-3.6,14.5-8.4,14.5-9.7
						C627.3,321,628.8,311.6,608.8,310z M516.3,339.5c-10.3,2.1-15.8-1.6-15.8-1.6l2.8-4.2c0,0,1.4,3.5,4.9,4
						c3.8,0.5,11.2-6.6,13.8-13.8c8.6-23.9,8.4-33.7,8.4-33.7c1.9,1.2,11,3.1,11,3.1c-3.5,3.9-10.1,28.2-11.2,32.5
						C529.1,330,526.5,337.4,516.3,339.5z M578.7,318.8c-2.1,7.5-8.4,11.6-16.6,11.9c0,0,4,3.6,5.2,8.5c1.2,5,2.8,16.1,8,18.2
						l-0.3,1.2c0,0-9.8-3.2-10.4-3.6c-0.5-0.3-2.3-1.7-3-4.9c-0.8-3.1-2.8-12.7-4.3-15.4c-1.3-2.4-3-6-10.9-6.3c0,0-5,14.8-4.5,20.1
						c0,0-7.1-2.7-10.6-2.9c0,0,7.7-19,12.1-36.8c1.8-7.4-0.5-7.5-0.5-7.5l0.6-1.2c0,0,1.7,1,4.3,1.7c2.6,0.8,17.7,3.5,21.9,5
						C573.8,308.3,580.7,311.3,578.7,318.8z"/>
				</g>
			</g>
			<path class="st0" d="M477.1,167.7v93.5c0,0,0,7.8-1.2,14c1.2-0.4,2.6-0.6,4.3-0.6c6.2,0,12.8,3.1,16,4.6c0.5,0.2,0.8,0.4,1.1,0.5
				c1.3,0.5,7.1,2.4,13.2,3.8c4.6-0.4,12-1.6,19.3-5.1c3.3-4.4,7.1-10.3,10.5-15.8c3.2-5,6.1-9.6,8.6-13c1.3-1.8,2.9-3.3,4.5-4.4
				c4.9-29.2-4.6-57.9-24.8-72.9c-13.9-10.3-34.5-16.6-55.8-10.7C472.9,161.5,473.9,166.2,477.1,167.7z M491.3,167.2
				c33.8-0.3,48.4,47.2,44.2,75.4c-4.2,28.2-20.2,35.3-30.6,35.3c-10.4,0-13.9-9.5-13.9-9.5L491.3,167.2z"/>
		</g>
		<path class="st0" d="M129.5,83.8l7.3-9.6c0,0,15.7,5.8,30.7,0l7.3,9.6l-1.6,1.7c0,0-9.2-8.8-16.6-5.1v50.8c0,0,0.2,5,2.4,6.4v1.3
			h-12.5v-1.3c0,0,2.1-0.8,2.2-6.4c0.1-3.7,0-50.8,0-50.8s-8.9-3.5-17.5,5.1L129.5,83.8z"/>
		<path class="st0" d="M345.3,83.8l7.3-9.6c0,0,15.7,5.8,30.7,0l7.3,9.6l-1.6,1.7c0,0-9.2-8.8-16.6-5.1v50.8c0,0,0.2,5,2.4,6.4v1.3
			h-12.5v-1.3c0,0,2.1-0.8,2.2-6.4c0.1-3.7,0-50.8,0-50.8s-8.9-3.5-17.5,5.1L345.3,83.8z"/>
		<path class="st0" d="M392,83.8l7.3-9.6c0,0,15.7,5.8,30.7,0l7.3,9.6l-1.6,1.7c0,0-9.2-8.8-16.6-5.1v50.8c0,0,0.2,5,2.4,6.4v1.3
			h-12.5v-1.3c0,0,2.1-0.8,2.2-6.4c0.1-3.7,0-50.8,0-50.8s-8.9-3.5-17.5,5.1L392,83.8z"/>
		<path class="st0" d="M245.9,84.1c0,0-4.6-4.8-8.2-5c-5.3-0.3-5.5,7.6-5.5,7.6v9.1c0,0,3.8-3.7,7.8-2.6c2.8,0.8,4.8,5.2,13.2,1
			c0,0-3.4,6-8.7,6.9c-7.8,1.4-7.9-6.7-12.4-0.9v30.6c0,0,1.6,4.4,6.5,4.2c4.9-0.2,11.9-4.2,15.6-8.7l1.5,1c0,0-2.4,7.9-8.6,11.6
			h-24.9v-1.3c0,0,2.1-0.8,2.2-6.4c0.1-3.6,0-44,0-47.3h0c0,0-0.1-5-2.2-6.4v-1.3c0,0,14.9-0.1,16.2-0.1c2.2-0.1,6-1.3,6.6-2.2
			c0,0,2.2,4.1,2.2,9.5L245.9,84.1z"/>
		<path class="st0" d="M502.2,84.1c0,0-4.6-4.8-8.2-5c-5.3-0.3-5.5,7.6-5.5,7.6v9.1c0,0,3.8-3.7,7.8-2.6c2.8,0.8,4.8,5.2,13.2,1
			c0,0-3.4,6-8.7,6.9c-7.8,1.4-7.9-6.7-12.4-0.9v30.6c0,0,1.6,4.4,6.5,4.2c4.9-0.2,11.9-4.2,15.6-8.7l1.5,1c0,0-2.4,7.9-8.6,11.6
			h-24.9v-1.3c0,0,2.1-0.8,2.2-6.4c0.1-3.6,0-44,0-47.3h0c0,0-0.1-5-2.2-6.4v-1.3c0,0,14.9-0.1,16.2-0.1c2.2-0.1,6-1.3,6.6-2.2
			c0,0,2.2,4.1,2.2,9.5L502.2,84.1z"/>
		<path class="st0" d="M340.5,77.5v-1.3h-12.5v1.3c2.2,1.3,2.2,6.4,2.2,6.4h0c0,3.3,0.1,43.7,0,47.3c-0.1,5.6-2.2,6.4-2.2,6.4v1.3
			h12.5v-1.3c-2.1-1.3-2.4-6.4-2.4-6.4V83.7C338.3,78.3,340.5,77.5,340.5,77.5z"/>
		<path class="st0" d="M290.4,138.8v-1.3c0,0,2.1-0.8,2.2-6.4c0.1-3.6,0-44,0-47.3h0c0,0-0.1-5-2.2-6.4v-1.3h12.5v1.3
			c0,0-2.2,0.8-2.4,6.2v45.6c0,0-0.8,4.5,5.7,4.7c8.2,0.4,13.3-11.3,13.3-11.3l1.8,0.7c0,0-4.3,14.2-9,15.2L290.4,138.8z"/>
		<path class="st0" d="M443,138.8v-1.3c0,0,2.1-0.8,2.2-6.4c0.1-3.6,0-44,0-47.3h0c0,0-0.1-5-2.2-6.4v-1.3h12.5v1.3
			c0,0-2.2,0.8-2.4,6.2v45.6c0,0-0.8,4.5,5.7,4.7c8.2,0.4,13.3-11.3,13.3-11.3l1.8,0.7c0,0-4.3,14.2-9,15.2L443,138.8z"/>
		<path class="st0" d="M215.5,77.5v-1.3H203v1.3c2.2,1.3,2.2,6.4,2.2,6.4h0c0,1,0,5.3,0,10.9c-3.1,0.8-5.9-0.4-9.3-3.2
			c-2.5-2.1-5.3-0.3-6,0.2c-0.6,0.4-1.2,0.5-1.6,0.5v-8.5c0.2-5.4,2.4-6.2,2.4-6.2v-1.3h-12.5v1.3c2.2,1.3,2.2,6.4,2.2,6.4h0
			c0,3.3,0.1,43.7,0,47.3c-0.1,5.6-2.2,6.4-2.2,6.4v1.3h12.5v-1.3c-2.2-1.3-2.4-6.4-2.4-6.4V96c1-0.5,3.1-1.2,4.8,0.6
			c2.2,2.4,6.2,3.1,7.5,3.1c2.8,0,4.2-0.7,4.7-1c0,13.1,0,30.2,0,32.5c-0.1,5.6-2.2,6.4-2.2,6.4v1.3h12.5v-1.3
			c-2.2-1.3-2.4-6.4-2.4-6.4V83.7C213.3,78.3,215.5,77.5,215.5,77.5z"/>
		<path class="st0" d="M236.9,30.2c-5.7,0.4-13,1.5-13,3.6c0.1,2.2,5.5,6.3,12.5,9C236.8,38.4,236.9,33.7,236.9,30.2z M216,8
			c-1.9,0.1-3.3-0.8-3.3-2c0-0.9,1.8-3.6,2.9-4c0.8-0.3,4.5-1.8,10.7-2c2.3-0.1,6.2,0.2,9.5,0.7c19.3,2.9,39.5,18.1,39.9,31.5
			c0.3,9.1-7.4,17.7-22.4,18.2c-3.9,0.1-7.6-0.4-10.9-1.3c-0.1,2.2,0.1,3.4-3,3.5c-1.9,0.1-2.6-3.1-2.9-5.7
			c-9-4.1-14.5-10.8-14.6-13.5c-0.1-3.9,6.8-7.2,15-8.5c0.1-3.3,0.7-11.6,2.3-11.6c0.7,0,2.1,1.6,2.6,4c0.5,2.2,0.5,6.3,0.5,7l0.6,0
			c11.4-0.3,18.3,3.3,18.4,7.7c0.1,3.4-2.8,5.1-4.3,5.2c-1.5,0-3.3-0.8-3.3-1.3c0-0.9,3.2-1.1,3.2-2.7c-0.1-2.3-9.1-3.3-14.7-3.3
			c0,2,0,4.3,0,5.9c0,1.5,0.1,5.5,0.2,8.7c2.5,0.6,5.2,0.9,7.7,0.8c6-0.2,19.8-2.5,19.5-13.1c-0.4-14.9-29-28.6-44.3-28.1
			c-6,0.2-9.6,0.9-9.6,1.5c0,0.4,2.9,0.6,3,1.4C218.7,7.8,217,7.9,216,8z"/>
		<path class="st1" d="M280.1,26.4c1,0,2.4,2.3,2.4,3.8c0,1.5,0.4,9.2,0.5,11.4c0.1,2.2,0,4.4-0.1,5.3c-0.1,1-0.5,1.5-2.2,1.5
			c-1.7,0-2.5-1-2.6-2.4c-0.1-1.5-0.3-5.7-0.2-7.8c0.1-2.1,0.2-6.2,0.4-8.7C278.7,27,279.3,26.4,280.1,26.4z"/>
		<path class="st1" d="M290.8,8.7c-0.3-0.7-1.2-2.1-4.6-2c-7.3,0.2-13,5.6-12.8,9.9c0,1.4,0.7,2.6,1.7,3.6c-0.3,0.7-0.3,1.2-0.3,1.4
			c0,0.7,1.1,2.7,2,2.7c0.7,0,1.2-0.7,1.9-1.8c1.2,0.5,2.4,0.7,3.3,0.7c6.9-0.2,13.1-6.7,13-10.8C295,10.5,293.8,8.7,290.8,8.7z
			 M280.4,19c0.8-1.2,5.2-7.1,9.8-7.2c1.3,0,1.7,0.8,1.7,1.7c0,1.4-2.5,5.6-8.3,5.7C282.3,19.2,281.3,19.1,280.4,19z M276.8,17.1
			c-0.1-0.2-0.2-0.4-0.2-0.9c0-0.9,1.6-4.6,5.7-4.9c-1,0.7-2.1,1.6-3.2,2.8C278.2,15.2,277.4,16.2,276.8,17.1z"/>
		<path class="st1" d="M298,25.8c4-0.1,9.1,0.4,9.1,1.7c0,0.8-0.4,2.3-2.5,2.5c-2.5,0.3-15.3,0.8-15.3,2.4c0,0.8,3.9,1,7.4,1.2
			c3.6,0.2,9.4,0.4,9.6,6.2c0.1,4.6-1.6,5.6-2.4,6c-1,0.5-4.4,1.7-6.9,1.8c-7.8,0.2-11-4.2-11.1-6.5c-0.1-2,2-3.8,5.5-3.9
			c3.5-0.1,8.9,1.2,8.9,2.6c0,1.2-2.3,1.8-3.4,1.8c-4.8,0.1-4.5-1.8-7.3-1.7c-1.6,0-3.8,3.4,4.1,3.1c7-0.2,9.1-2.5,9.1-3.7
			c0-1.6-5.1-2.4-8-2.6c-2.9-0.2-7.2-0.1-8.7-1.1c-1.5-0.9-1.3-3.1-0.8-4.8C286.5,27.2,294,25.9,298,25.8z"/>
		<path class="st1" d="M311.8,28.4c2.7-0.1,8.4,12.3,9.4,12.3c1,0,0.2-2.9-0.4-6c-1.4-7.1-3.5-10.8-1.5-10.9c1.5,0,6.4,4.7,6.7,13.8
			c0.1,4.3-0.5,9.8-4.3,9.9c-3.7,0.1-7.8-11.4-8.8-11.4c-0.5,0-0.6,7.1-0.7,9.3c-0.1,2.2-0.9,3.3-2.1,3.3c-1.8,0.1-2.6-1.7-2.7-5.1
			C307.3,40.2,308.4,28.5,311.8,28.4z"/>
		<path class="st0" d="M339.5,35.1c1.3,0,2.4-0.3,2.3,1.4c-0.1,1.7-0.2,2.4-1.5,2.4l-6.9,0.2c-0.2,0.8-0.8,2.7-1.1,3.6
			c-0.3,1,0.7,0.8,2.1,0.4c1.4-0.4,5-1.1,6.5-1.1c1.5,0,2.6,2.4,1.8,3.2c-0.9,0.8-5.5,4.8-10.4,4.9c-2.1,0.1-4.9-1.8-5-5
			c-0.1-1.7,0.6-4.1,1.3-5.9c-0.2-0.1-0.3-0.3-0.4-0.9c-0.2-1.2-0.7-2.5,1.2-2.7c0.2,0,0.4,0,0.6-0.1l1.6-3.3
			c-0.7-0.1-1.2-0.2-1.7-0.4c-1.2-0.6-2.1-2-2.1-2.7c0-1.4,10.5-2.3,12.9-2.4c2.6-0.1,3.4,0.4,4.2,1.6c0.8,1.2,1.2,2,1.2,2.4
			c0,0.3-0.3,1.1-3.5,1.2c-1.6,0-4.2,0.3-6.7,0.4l-1.1,2.9C337.2,35.2,339.5,35.1,339.5,35.1z"/>
		<path class="st1" d="M346.6,45.1c-2.8,5.6-4.7,11.5-4.6,15.9c0.1,5,3.2,6.9,4.2,6.9c0.9,0,1-1.5,1.1-2.6c1-6.3,2.6-11.8,4.5-16.5
			c0.7,0.2,1.5,0.3,2.2,0.3c5.7-0.2,12.4-7,12.2-14.3c-0.1-3.8-1.6-6.6-4.1-6.5c-3.6,0.1-8.8,5.6-13,12.4c-0.4-2.8,1.8-7.1,3.7-10
			c1.3-2.1,1.1-4.6,0.5-4.6c-0.8,0-8.2,6.3-7.9,14.9C345.5,42.5,345.9,43.9,346.6,45.1z M354.3,43.3c3.5-6.7,7-10.6,8.3-10.6
			C364.7,32.6,362.9,42.4,354.3,43.3z"/>
	</g>
</g>
</svg>
