<?xml version="1.0" encoding="utf-8"?>
<!-- Generator: Adobe Illustrator 26.0.2, SVG Export Plug-In . SVG Version: 6.00 Build 0)  -->
<svg version="1.1" id="Layer_1" xmlns="http://www.w3.org/2000/svg" xmlns:xlink="http://www.w3.org/1999/xlink" x="0px" y="0px"
	 viewBox="0 0 432 432" style="enable-background:new 0 0 432 432;" xml:space="preserve">
<style type="text/css">
	.st0{fill:#FFFFFF;}
	.st1{fill-rule:evenodd;clip-rule:evenodd;fill:#FFFFFF;}
	.st2{fill:#0E7F6A;}
	.st3{fill:#E9B795;}
	.st4{fill:#AC1E34;}
	.st5{fill:#EC1C25;}
	.st6{fill:#8AD1D2;}
	.st7{fill:#8278B6;}
	.st8{fill:#F4D4BD;}
	.st9{fill:#70A1C9;}
	.st10{fill:#F6EB21;}
	.st11{fill:#4691AC;}
	.st12{fill:#F05B64;}
	.st13{fill:#C3996B;}
	.st14{fill:#F26D34;}
	.st15{fill:#F59A9C;}
	.st16{fill:#230C0C;}
	.st17{fill:#660C0C;}
	.st18{fill:#CB505B;}
	.st19{fill:#4D1E28;}
	.st20{fill:#6F2131;}
	.st21{fill:#F496A7;}
	.st22{fill:#A4BE9C;}
	.st23{fill:#231F20;}
	.st24{fill:#00947D;}
</style>
<g>
	<g>
		<g>
			<path class="st0" d="M8.59,290.14c0,0,5.92-1.63,7.97-16.34C18.6,259.09,19,238.05,19,223.14c0-14.91,4.32-41.14,10.55-53.42
				c6.08-12,6.41-3.58,6.82,0.31c0.41,3.88,12.99,50.2,16.14,57.82c1.4,3.4,1.53-0.92,1.58-1.63c0.05-0.72,8.56-38.4,24.41-59.71
				c4.9-6.59,5.21,0.26,4.9,3.37c0,0-1.63,85.8,1.99,102.5c0,0-4.49-1.23-17.98-0.41c0,0,1.84-6.33,2.25-11.24
				c0.41-4.9,0-55.77,0-55.77s0-3.06-1.84,1.63c-1.84,4.7-15.53,50.26-16.55,58.02c-1.02,7.76-1.84-2.04-2.45-3.47
				c-0.61-1.43-16.75-53.32-16.96-55.36c-0.2-2.04-1.23-7.35-3.06,0.2c-1.84,7.56-2.45,27.58-2.86,40.04
				c-0.41,12.46-0.31,46.07-18.59,50.87c-4.07,1.07-6.54-1.63-7.25-3.37c-0.47-1.15,0.61-4.39,3.37-4.29
				C6.24,289.33,6.75,290.76,8.59,290.14z"/>
			<path class="st0" d="M190.16,233.48c0-11.67,3.39-32.2,8.26-41.82c4.76-9.4,5.02-2.8,5.34,0.24c0.32,3.04,10.17,39.3,12.64,45.26
				c1.1,2.66,1.2-0.72,1.24-1.28c0.04-0.56,6.7-30.06,19.11-46.74c3.84-5.16,4.08,0.2,3.84,2.64c0,0-1.28,67.17,1.56,80.25
				c0,0-3.52-0.96-14.07-0.32c0,0,1.44-4.96,1.76-8.8c0.32-3.84,0-43.66,0-43.66s0-2.4-1.44,1.28
				c-1.44,3.68-12.16,39.35-12.96,45.42c-0.8,6.08-1.44-1.6-1.92-2.72c-0.48-1.12-13.11-41.74-13.27-43.34
				c-0.16-1.6-0.96-5.76-2.4,0.16c-1.44,5.92-1.92,21.59-2.24,31.35c0,0-0.04,17.91-7.54,21.74c-7.51,3.83-10.11-0.43-9.65-2.55
				c0.56-2.6,5.21-2.81,7.2-0.36c0,0,4.75-3.06,4.44-10.88C189.74,251.53,190.16,233.48,190.16,233.48z"/>
			<path class="st0" d="M85.5,226.4l9.4-11.95c0,0,0.46-16.39,0-17.93c-0.46-1.53-2.3-7.35-2.6-7.97c-0.31-0.61-0.46-1.53,1.38-1.23
				c1.84,0.31,24.52-0.31,26.35-0.61c1.84-0.31,3.22-2.3,3.83-0.77c0.61,1.53,1.53,3.63,1.94,5.21c0.41,1.58,0.87,5.31,0.82,5.93
				c-0.05,0.61-1.12,2.04-2.25,0.92c-1.12-1.12-4.14-5.31-8.48-5.41c-4.34-0.1-9.7-0.82-9.7,6.33c0,7.15,0,9.55,0,9.55
				s4.23-0.42,7.2,1.33c2.86,1.69,9.6,7.4,19.82,1.23c0,0-3.69,10.6-16.85,11.24c-5.26,0.26-10.67-3.22-10.67-3.22v36.26
				c0,0-0.87,4.39,2.4,7.25c3.27,2.86,5.01,4.29,11.75,4.29c6.74,0,12.87-6.33,12.77-10.01c0,0,2.04,4.09-0.82,9.6
				c-2.86,5.52-11.13,6.23-12.77,6.23c-1.64,0-23.9-0.61-26.46-0.31c0,0,2.25-6.23,2.25-10.83c0-4.6,0-42.39,0-42.39L85.5,226.4z"/>
			<path class="st0" d="M205.32,289.12c0,0-3.28,7.5-10.42,6.95c-7.97-0.61-14.71-15.32-18.59-22.27
				c-3.88-6.95-12.67-29.62-15.12-31.87c0,0,17.98-7.36,18.18-24.11c0.2-16.75-13.69-29.21-22.88-31.46
				c-9.19-2.25-19.2,0.2-21.04,1.43c0,0,0.61,3.68,3.47,4.7v66.19c0,0-0.2,9.6-2.25,13.28c0,0,10.62-0.61,16.55-0.2
				c0,0-3.47-7.97-3.68-16.96c-0.2-8.99,0-14.4,0-14.4s0.92-2.86,2.25,1.12c1.33,3.98,15.12,42.7,30.03,55.36
				C196.74,309.55,207.36,298.73,205.32,289.12z M149.75,236.62v-45.76c0,0,7.56,0,14.1,8.38c8.3,10.64,6.54,25.74,0.41,32.89
				C158.65,238.67,149.75,236.62,149.75,236.62z"/>
			<path class="st0" d="M300.67,242.03c-2.45,1.53-6.43,2.45-6.43,2.45c0.15-15.02-13.48-48.11-14.71-52.71
				c-1.23-4.6-0.26-8.27-4.44-3.22C259.66,207.18,249.75,250,249.75,250l-6.95,7.87l6.44-4.19c0,0-0.82,7.97-0.92,12.56
				c-0.1,4.6-2.96,6.33-2.96,6.33c2.91-0.61,10.57-0.2,10.57-0.2c-1.84-2.3-1.53-13.18-0.92-15.63c0.61-2.45,1.3-6.74,1.3-6.74
				c5.67-4.37,11.59,2.8,18.16,3.37c6.21,0.54,10.5-0.77,10.5-0.77c0.77,2.6,0.69,9.81,0.69,12.26c0,2.45-2.45,6.9-2.45,6.9
				c7.97,1.99,15.01,0,15.01,0c-1.53-4.9-3.68-23.6-3.68-23.6C299.14,245.86,300.67,242.03,300.67,242.03z M278.99,243.95
				c-0.51-0.71-3.91-3.45-10.04-3.45c-6.13,0-11.85,2.55-11.85,2.55s-2.09,1.66-0.92-3.27c3.73-15.68,9.68-28.63,11.47-31.77
				c2.53-4.44,2.53-1.94,4.06,1.74c1.53,3.68,6.33,20.74,6.74,22.68c0.41,1.94,1.94,7.56,2.55,10.22
				C281.62,245.3,279.5,244.66,278.99,243.95z"/>
			<path class="st0" d="M301.54,187.38c0,0,9.7,0.18,16.22-0.05c0,0-0.61,2.38-1.23,3.98c-0.61,1.61-1.3,6.59-1.3,10.57
				c0,3.98,0,53.93,0,53.93s-0.15,13.18,3.06,16.55c0,0-10.37-0.2-16.96,0.1c0,0,3.37-8.63,3.06-19.2
				C304.1,242.7,306.24,192.19,301.54,187.38z"/>
		</g>
		<g>
			<path class="st0" d="M8.23,269.45c0-0.38,0.1-0.74,0.29-1.1c0.19-0.36,0.47-0.64,0.83-0.84c0.36-0.2,0.73-0.3,1.12-0.3
				c0.39,0,0.76,0.1,1.11,0.3c0.36,0.2,0.63,0.47,0.83,0.83c0.2,0.36,0.29,0.73,0.29,1.11c0,0.39-0.1,0.76-0.29,1.11
				c-0.2,0.35-0.47,0.63-0.83,0.83c-0.36,0.2-0.73,0.3-1.11,0.3c-0.39,0-0.76-0.1-1.12-0.3c-0.36-0.2-0.63-0.48-0.83-0.84
				C8.32,270.19,8.23,269.82,8.23,269.45z M8.42,269.45c0,0.34,0.09,0.68,0.26,1c0.18,0.33,0.43,0.58,0.75,0.76
				c0.33,0.18,0.67,0.27,1.02,0.27c0.35,0,0.69-0.09,1.01-0.27c0.32-0.18,0.58-0.43,0.76-0.75c0.18-0.32,0.27-0.66,0.27-1.02
				c0-0.35-0.09-0.69-0.27-1.02c-0.18-0.32-0.43-0.58-0.76-0.76c-0.32-0.18-0.66-0.27-1.01-0.27c-0.36,0-0.7,0.09-1.02,0.27
				c-0.33,0.18-0.58,0.44-0.75,0.76C8.51,268.77,8.42,269.1,8.42,269.45z M9.02,268.34l0.88-0.06v0.12
				c-0.25,0.08-0.44,0.2-0.56,0.36c-0.12,0.17-0.18,0.36-0.18,0.59c0,0.17,0.04,0.33,0.11,0.46c0.07,0.14,0.17,0.24,0.29,0.33
				c0.09,0.06,0.21,0.12,0.36,0.16c0.15,0.04,0.31,0.06,0.47,0.06c0.45,0,0.77-0.1,0.98-0.29c0.21-0.19,0.32-0.44,0.32-0.76
				c0-0.41-0.17-0.74-0.51-0.98l0.06-0.12c0.43,0.29,0.64,0.69,0.64,1.21c0,0.42-0.14,0.77-0.41,1.04c-0.27,0.28-0.6,0.42-0.99,0.42
				c-0.4,0-0.75-0.15-1.03-0.44c-0.29-0.29-0.43-0.67-0.43-1.13c0-0.1,0.01-0.18,0.02-0.24c0.01-0.06,0.05-0.18,0.1-0.34
				c0.02-0.05,0.03-0.09,0.03-0.12c0-0.03-0.01-0.06-0.03-0.08c-0.02-0.02-0.06-0.05-0.11-0.07V268.34z"/>
			<path class="st0" d="M8.31,264.9c-0.05-0.35-0.09-0.76-0.09-1.2c0-0.81,0.18-1.38,0.54-1.76c0.35-0.39,0.86-0.62,1.57-0.62
				c0.71,0,1.29,0.23,1.69,0.63c0.41,0.41,0.63,1.08,0.63,1.93c0,0.41-0.01,0.74-0.05,1.03H8.31z M12.16,264.33
				c0.03-0.14,0.03-0.35,0.03-0.57c0.01-1.2-0.67-1.85-1.84-1.85c-1.04-0.01-1.68,0.57-1.68,1.76c0,0.29,0.03,0.51,0.06,0.66H12.16z
				"/>
			<path class="st0" d="M8.9,260.33c0,0.21-0.17,0.35-0.37,0.35c-0.2,0-0.36-0.15-0.36-0.37c0-0.22,0.16-0.36,0.36-0.36
				C8.73,259.96,8.9,260.1,8.9,260.33L8.9,260.33z M12.6,260.6H9.47v-0.57h3.12V260.6z"/>
			<path class="st0" d="M12.02,259.17c0.1-0.17,0.22-0.47,0.22-0.76c0-0.41-0.2-0.6-0.46-0.6c-0.27,0-0.42,0.16-0.57,0.58
				c-0.21,0.57-0.51,0.83-0.88,0.83c-0.5,0-0.92-0.41-0.92-1.08c0-0.32,0.08-0.59,0.19-0.76l0.41,0.14
				c-0.07,0.12-0.18,0.35-0.18,0.64c0,0.34,0.19,0.52,0.43,0.52c0.26,0,0.38-0.18,0.54-0.59c0.2-0.53,0.47-0.82,0.94-0.82
				c0.56,0,0.94,0.43,0.94,1.16c0,0.34-0.09,0.66-0.22,0.88L12.02,259.17z"/>
			<path class="st0" d="M10.32,256.54c-0.33,0-0.59,0.01-0.85,0.03v-0.5l0.51-0.03v-0.01c-0.29-0.16-0.58-0.52-0.58-1.03
				c0-0.43,0.26-1.1,1.33-1.1h1.87v0.57h-1.8c-0.5,0-0.93,0.19-0.93,0.72c0,0.37,0.27,0.66,0.58,0.76c0.07,0.03,0.17,0.04,0.26,0.04
				h1.88v0.57H10.32z"/>
			<path class="st0" d="M11.13,252.63c0.77-0.01,1.08-0.5,1.08-1.06c0-0.41-0.07-0.66-0.15-0.87l0.4-0.1c0.09,0.2,0.2,0.55,0.2,1.04
				c0,0.95-0.64,1.53-1.57,1.53c-0.95,0-1.69-0.56-1.69-1.47c0-1.02,0.9-1.28,1.47-1.28c0.12,0,0.21,0.01,0.27,0.02L11.13,252.63z
				 M10.73,250.98c-0.35-0.01-0.92,0.15-0.92,0.78c0,0.58,0.53,0.83,0.92,0.87V250.98z"/>
			<path class="st0" d="M9.47,249.53l1.85-0.68c0.21-0.08,0.45-0.16,0.64-0.21v-0.01c-0.19-0.06-0.42-0.12-0.65-0.2l-1.83-0.62v-0.6
				l2.23,0.85c1.07,0.41,1.62,0.68,1.96,1.07c0.24,0.28,0.33,0.56,0.36,0.7l-0.48,0.14c-0.04-0.14-0.13-0.33-0.28-0.5
				c-0.12-0.15-0.34-0.34-0.63-0.48c-0.06-0.03-0.1-0.04-0.14-0.04c-0.03,0-0.08,0.01-0.14,0.04l-2.88,1.15V249.53z"/>
		</g>
		<g>
			<g>
				<path class="st0" d="M389.29,290.11c-2.6-2.01-6.84-1.34-8.7,0.74c-2.24,2.51-4.01,11.01-4.01,11.01
					c3.57,0.74,4.01,2.16,8.1,1.71c2.59-0.28,5.06-2.38,6.77-5.35C393.16,295.24,391.89,292.12,389.29,290.11z"/>
			</g>
			<g>
				<g>
					<path class="st0" d="M419.27,291.06c-16.31-1.33-19.46-5.67-21.76-8.43c-2.3-2.76-3.22-11.65-3.83-20.99
						c-0.34-5.15-0.36-13.69-4.48-14.9c-2.97-0.87-6.78,0.42-9.41,3.97c-4.71,6.36-12.31,20.2-16.98,24.11
						c-3.84,3.21-19.38-1.84-21.22-2.61c-1.84-0.77-12.1-6.44-16.09-1.07c-3.98,5.36,1.84,10.11,1.84,10.11
						c11.65,11.19,15.78,16.4,16.09,22.98c0.31,6.59-4.2,11.72-8.73,17.16c-5.36,6.44-6.96,10.3-3.52,14.81
						c2.96,3.88,8.58,2.81,15.94-1.94c7.36-4.75,13.94-6.59,20.38-5.36c6.43,1.23,11.49,8.43,14.4,13.64
						c2.91,5.21,5.52,13.79,12.72,11.49c7.2-2.3,3.83-15.48,3.52-17.31c-0.31-1.84-2.2-17.57,1.99-21.86
						c5.37-5.5,11.49-6.18,21.91-8.63c10.42-2.45,9.96-5.77,9.96-6.69C431.98,298.62,433,292.19,419.27,291.06z M355.53,311.38
						c-7.06,1.41-10.86-1.12-10.86-1.12l1.93-2.9c0,0,0.99,2.41,3.35,2.75c2.6,0.37,7.71-4.51,9.52-9.52
						c5.95-16.43,5.8-23.2,5.8-23.2c1.34,0.82,7.58,2.16,7.58,2.16c-2.38,2.68-6.99,19.41-7.73,22.38
						C364.4,304.84,362.6,309.97,355.53,311.38z M398.51,297.1c-1.41,5.13-5.8,7.96-11.45,8.18c0,0,2.75,2.45,3.57,5.87
						c0.82,3.42,1.93,11.08,5.5,12.57l-0.22,0.82c0,0-6.77-2.23-7.14-2.45c-0.37-0.22-1.56-1.19-2.08-3.35
						c-0.52-2.16-1.93-8.71-2.97-10.63c-0.89-1.64-2.08-4.16-7.51-4.31c0,0-3.42,10.19-3.12,13.83c0,0-4.91-1.86-7.29-2.01
						c0,0,5.33-13.11,8.33-25.36c1.24-5.08-0.33-5.17-0.33-5.17l0.4-0.86c0,0,1.19,0.67,2.97,1.19c1.78,0.52,12.19,2.38,15.09,3.42
						C395.17,289.89,399.92,291.97,398.51,297.1z"/>
				</g>
			</g>
			<path class="st0" d="M328.56,193.08v64.38c0,0-0.02,5.34-0.86,9.64c0.85-0.26,1.82-0.41,2.96-0.41c4.25,0,8.82,2.15,11.02,3.18
				c0.32,0.15,0.57,0.27,0.74,0.34c0.9,0.38,4.88,1.68,9.08,2.59c3.16-0.25,8.23-1.11,13.32-3.53c2.28-3.05,4.87-7.12,7.26-10.88
				c2.17-3.41,4.22-6.64,5.94-8.96c0.9-1.22,1.97-2.25,3.12-3.06c3.36-20.09-3.2-39.85-17.1-50.18c-9.56-7.1-23.76-11.4-38.41-7.36
				C325.65,188.81,326.36,192.03,328.56,193.08z M338.32,192.7c23.29-0.2,33.3,32.48,30.44,51.89
				c-2.86,19.41-13.89,24.31-21.04,24.31c-7.15,0-9.6-6.54-9.6-6.54L338.32,192.7z"/>
		</g>
		<path class="st0" d="M89.18,135.29l5.01-6.64c0,0,10.83,3.98,21.14,0l5.01,6.64l-1.12,1.17c0,0-6.33-6.08-11.44-3.52v34.99
			c0,0,0.15,3.47,1.63,4.39v0.87h-8.58v-0.87c0,0,1.43-0.54,1.53-4.39c0.07-2.55,0-34.99,0-34.99s-6.13-2.4-12.05,3.52L89.18,135.29
			z"/>
		<path class="st0" d="M237.8,135.29l5.01-6.64c0,0,10.83,3.98,21.14,0l5.01,6.64l-1.12,1.17c0,0-6.33-6.08-11.44-3.52v34.99
			c0,0,0.15,3.47,1.63,4.39v0.87h-8.58v-0.87c0,0,1.43-0.54,1.53-4.39c0.07-2.55,0-34.99,0-34.99s-6.13-2.4-12.05,3.52L237.8,135.29
			z"/>
		<path class="st0" d="M269.98,135.29l5.01-6.64c0,0,10.83,3.98,21.14,0l5,6.64l-1.12,1.17c0,0-6.33-6.08-11.44-3.52v34.99
			c0,0,0.15,3.47,1.63,4.39v0.87h-8.58v-0.87c0,0,1.43-0.54,1.53-4.39c0.07-2.55,0-34.99,0-34.99s-6.13-2.4-12.05,3.52
			L269.98,135.29z"/>
		<path class="st0" d="M169.31,135.49c0,0-3.19-3.34-5.67-3.47c-3.68-0.2-3.78,5.21-3.78,5.21v6.28c0,0,2.63-2.55,5.36-1.79
			c1.95,0.55,3.32,3.58,9.09,0.66c0,0-2.37,4.1-5.98,4.75c-5.36,0.97-5.41-4.6-8.53-0.61v21.09c0,0,1.12,3.01,4.49,2.86
			c3.37-0.15,8.17-2.86,10.73-5.98l1.02,0.72c0,0-1.69,5.47-5.92,7.97H153v-0.87c0,0,1.43-0.54,1.53-4.39
			c0.06-2.45,0.01-30.29,0-32.57h-0.01c0,0-0.04-3.47-1.52-4.39v-0.87c0,0,10.24-0.04,11.16-0.06c1.49-0.04,4.14-0.87,4.55-1.48
			c0,0,1.53,2.84,1.53,6.54L169.31,135.49z"/>
		<path class="st0" d="M345.82,135.49c0,0-3.19-3.34-5.67-3.47c-3.68-0.2-3.78,5.21-3.78,5.21v6.28c0,0,2.63-2.55,5.36-1.79
			c1.95,0.55,3.32,3.58,9.09,0.66c0,0-2.37,4.1-5.98,4.75c-5.36,0.97-5.41-4.6-8.53-0.61v21.09c0,0,1.12,3.01,4.49,2.86
			c3.37-0.15,8.17-2.86,10.72-5.98l1.02,0.72c0,0-1.69,5.47-5.92,7.97H329.5v-0.87c0,0,1.43-0.54,1.53-4.39
			c0.07-2.45,0.01-30.29,0-32.57h-0.01c0,0-0.04-3.47-1.52-4.39v-0.87c0,0,10.24-0.04,11.16-0.06c1.49-0.04,4.14-0.87,4.55-1.48
			c0,0,1.53,2.84,1.53,6.54L345.82,135.49z"/>
		<path class="st0" d="M234.51,130.96v-0.87h-8.58v0.87c1.48,0.92,1.52,4.39,1.52,4.39h0.01c0,2.28,0.07,30.12,0,32.57
			c-0.1,3.86-1.53,4.39-1.53,4.39v0.87h8.58v-0.87c-1.48-0.92-1.63-4.39-1.63-4.39v-32.69
			C233.01,131.49,234.51,130.96,234.51,130.96z"/>
		<path class="st0" d="M199.98,173.19v-0.87c0,0,1.43-0.54,1.53-4.39c0.06-2.45,0.01-30.29,0-32.57h-0.01c0,0-0.04-3.47-1.52-4.39
			v-0.87h8.58v0.87c0,0-1.51,0.53-1.64,4.27v31.42c0,0-0.59,3.07,3.91,3.27c5.64,0.26,9.19-7.76,9.19-7.76l1.23,0.51
			c0,0-2.96,9.78-6.23,10.5L199.98,173.19z"/>
		<path class="st0" d="M305.09,173.19v-0.87c0,0,1.43-0.54,1.53-4.39c0.06-2.45,0-30.29,0-32.57h-0.01c0,0-0.04-3.47-1.52-4.39
			v-0.87h8.58v0.87c0,0-1.51,0.53-1.64,4.27v31.42c0,0-0.59,3.07,3.91,3.27c5.64,0.26,9.19-7.76,9.19-7.76l1.23,0.51
			c0,0-2.96,9.78-6.23,10.5L305.09,173.19z"/>
		<path class="st0" d="M148.4,130.96v-0.87h-8.58v0.87c1.48,0.92,1.52,4.39,1.52,4.39h0.01c0,0.68,0.01,3.62,0.01,7.48
			c-2.17,0.52-4.04-0.25-6.44-2.23c-1.71-1.41-3.68-0.19-4.14,0.11c-0.42,0.28-0.83,0.34-1.11,0.34v-5.82
			c0.13-3.74,1.64-4.27,1.64-4.27v-0.87h-8.58v0.87c1.48,0.92,1.52,4.39,1.52,4.39h0.01c0.01,2.28,0.06,30.12,0,32.57
			c-0.1,3.86-1.53,4.39-1.53,4.39v0.87h8.58v-0.87c-1.48-0.92-1.63-4.39-1.63-4.39v-24.24c0.69-0.33,2.16-0.81,3.29,0.44
			c1.53,1.69,4.25,2.13,5.17,2.15c1.92,0.03,2.92-0.5,3.22-0.69c0.01,8.99,0.02,20.79-0.02,22.35c-0.1,3.86-1.53,4.39-1.53,4.39
			v0.87h8.58v-0.87c-1.48-0.92-1.63-4.39-1.63-4.39v-32.69C146.9,131.49,148.4,130.96,148.4,130.96z"/>
		<path class="st0" d="M163.15,98.4c-3.94,0.3-8.98,1.06-8.94,2.48c0.04,1.49,3.76,4.35,8.64,6.21
			C163.07,104.04,163.13,100.81,163.15,98.4z M148.72,83.06c-1.3,0.04-2.28-0.54-2.3-1.36c-0.02-0.6,1.25-2.46,2.02-2.76
			c0.53-0.21,3.1-1.21,7.4-1.35c1.59-0.05,4.29,0.15,6.57,0.5c13.28,2.03,27.22,12.46,27.49,21.72c0.18,6.3-5.1,12.2-15.4,12.52
			c-2.71,0.08-5.24-0.26-7.54-0.88c-0.05,1.55,0.06,2.36-2.07,2.43c-1.3,0.04-1.81-2.13-2-3.9c-6.22-2.84-9.97-7.47-10.02-9.29
			c-0.08-2.72,4.71-4.98,10.32-5.88c0.08-2.25,0.45-7.97,1.6-8.01c0.46-0.02,1.42,1.09,1.78,2.78c0.33,1.54,0.36,4.34,0.37,4.84
			l0.42-0.02c7.86-0.24,12.58,2.29,12.66,5.29c0.07,2.33-1.93,3.52-2.98,3.55c-1.05,0.03-2.28-0.58-2.29-0.92
			c-0.02-0.64,2.24-0.79,2.21-1.83c-0.04-1.56-6.3-2.25-10.15-2.27c-0.01,1.34-0.02,2.97,0.01,4.06c0.03,1.05,0.09,3.76,0.12,6.02
			c1.75,0.38,3.55,0.59,5.31,0.53c4.15-0.13,13.64-1.69,13.43-9.03c-0.3-10.26-19.98-19.68-30.53-19.36
			c-4.15,0.13-6.65,0.59-6.63,1.01c0.01,0.28,2.02,0.39,2.04,0.94C150.59,82.96,149.43,83.04,148.72,83.06z"/>
		<path class="st1" d="M192.91,95.77c0.68-0.02,1.65,1.61,1.68,2.63c0.03,1.02,0.27,6.34,0.35,7.87c0.07,1.53,0.02,3-0.08,3.68
			c-0.1,0.68-0.35,1.01-1.51,1.05c-1.17,0.03-1.71-0.66-1.81-1.69c-0.1-1.03-0.19-3.94-0.13-5.4c0.05-1.46,0.12-4.25,0.31-6
			C191.9,96.16,192.37,95.79,192.91,95.77z"/>
		<path class="st1" d="M200.27,83.6c-0.19-0.48-0.84-1.46-3.16-1.39c-5.05,0.15-8.93,3.89-8.84,6.83c0.03,0.96,0.49,1.8,1.17,2.48
			c-0.18,0.48-0.19,0.8-0.19,0.99c0.02,0.51,0.79,1.86,1.38,1.84c0.5-0.01,0.84-0.48,1.32-1.24c0.82,0.32,1.64,0.48,2.29,0.46
			c4.75-0.14,9.05-4.59,8.97-7.43C203.16,84.84,202.32,83.57,200.27,83.6z M193.1,90.67c0.58-0.82,3.61-4.88,6.73-4.97
			c0.92-0.03,1.16,0.54,1.18,1.17c0.03,0.98-1.74,3.83-5.72,3.94C194.43,90.83,193.69,90.77,193.1,90.67z M190.63,89.32
			c-0.07-0.12-0.14-0.31-0.15-0.6c-0.02-0.65,1.11-3.15,3.94-3.35c-0.72,0.5-1.45,1.13-2.17,1.94
			C191.57,88.07,191.03,88.74,190.63,89.32z"/>
		<path class="st1" d="M205.22,95.34c2.78-0.08,6.26,0.28,6.29,1.17c0.01,0.52-0.26,1.6-1.74,1.76c-1.75,0.18-10.57,0.55-10.54,1.64
			c0.02,0.58,2.67,0.7,5.1,0.85c2.5,0.15,6.51,0.24,6.63,4.29c0.09,3.19-1.11,3.87-1.66,4.12c-0.69,0.32-3.01,1.2-4.79,1.26
			c-5.36,0.16-7.56-2.92-7.61-4.48c-0.04-1.39,1.39-2.62,3.79-2.69c2.4-0.07,6.12,0.8,6.15,1.78c0.02,0.8-1.62,1.21-2.34,1.23
			c-3.28,0.1-3.12-1.23-5.01-1.18c-1.08,0.03-2.59,2.32,2.81,2.16c4.81-0.14,6.26-1.73,6.24-2.58c-0.03-1.13-3.48-1.68-5.48-1.78
			c-1.99-0.1-4.99-0.09-6.01-0.74c-1.02-0.65-0.88-2.11-0.53-3.32C197.27,96.31,202.44,95.43,205.22,95.34z"/>
		<path class="st1" d="M214.71,97.15c1.88-0.06,5.81,8.46,6.48,8.44c0.66-0.02,0.17-1.99-0.25-4.16c-0.95-4.92-2.43-7.46-1.04-7.5
			c1.03-0.03,4.39,3.23,4.58,9.53c0.09,2.93-0.33,6.76-2.98,6.84c-2.52,0.07-5.38-7.87-6.03-7.85c-0.35,0.01-0.38,4.92-0.47,6.4
			c-0.09,1.48-0.61,2.27-1.44,2.3c-1.25,0.04-1.8-1.16-1.87-3.53C211.62,105.26,212.39,97.22,214.71,97.15z"/>
		<path class="st0" d="M233.8,101.76c0.89-0.03,1.67-0.18,1.59,0.98c-0.08,1.15-0.13,1.62-1.05,1.65l-4.75,0.14
			c-0.16,0.53-0.56,1.89-0.75,2.46c-0.23,0.72,0.49,0.56,1.42,0.3c0.93-0.27,3.46-0.74,4.5-0.77c1.04-0.03,1.81,1.62,1.22,2.19
			c-0.6,0.57-3.81,3.28-7.16,3.38c-1.44,0.04-3.39-1.21-3.46-3.47c-0.04-1.19,0.44-2.79,0.9-4.04c-0.11-0.07-0.2-0.23-0.26-0.59
			c-0.15-0.81-0.51-1.7,0.83-1.85c0.11-0.01,0.24-0.03,0.4-0.04l1.11-2.29c-0.45-0.07-0.84-0.17-1.14-0.31
			c-0.82-0.39-1.46-1.4-1.47-1.85c-0.03-0.99,7.22-1.58,8.9-1.63c1.8-0.05,2.31,0.29,2.89,1.12c0.58,0.82,0.79,1.4,0.8,1.63
			c0.01,0.23-0.2,0.78-2.38,0.85c-1.11,0.03-2.91,0.22-4.64,0.28l-0.75,2.01C232.22,101.82,233.8,101.76,233.8,101.76z"/>
		<path class="st1" d="M238.71,108.61c-1.95,3.84-3.25,7.91-3.16,10.97c0.1,3.45,2.22,4.74,2.86,4.72c0.64-0.02,0.68-1.04,0.79-1.8
			c0.65-4.31,1.79-8.13,3.07-11.33c0.51,0.13,1.02,0.19,1.48,0.17c3.95-0.12,8.52-4.83,8.37-9.85c-0.08-2.65-1.09-4.53-2.79-4.48
			c-2.48,0.07-6.06,3.83-8.92,8.54c-0.25-1.91,1.25-4.86,2.54-6.92c0.9-1.45,0.74-3.17,0.37-3.15c-0.52,0.02-5.61,4.32-5.44,10.24
			C237.91,106.86,238.21,107.83,238.71,108.61z M243.97,107.42c2.38-4.65,4.83-7.29,5.69-7.32
			C251.15,100.05,249.89,106.81,243.97,107.42z"/>
	</g>
</g>
</svg>
